<svg width="60" height="60" viewBox="0 0 60 60" fill="none" xmlns="http://www.w3.org/2000/svg">
<g clip-path="url(#clip0)">
<path d="M43.8408 43.7494C42.9233 42.8363 41.4394 42.8398 40.5262 43.7572L32.3437 51.9793V2.34375C32.3437 1.0493 31.2944 0 30 0C28.7055 0 27.6562 1.0493 27.6562 2.34375V51.9795L19.4737 43.7571C18.5606 42.8396 17.0767 42.8361 16.1592 43.7493C15.2416 44.6625 15.2382 46.1464 16.1512 47.0639L28.3387 59.3105C28.3394 59.3113 28.3403 59.3119 28.341 59.3126C29.2541 60.2277 30.7428 60.2306 31.659 59.3127C31.6597 59.3119 31.6605 59.3113 31.6612 59.3106L43.8487 47.064C44.7616 46.1467 44.7585 44.6626 43.8408 43.7494Z" fill="white"/>
</g>
<defs>
<clipPath id="clip0">
<rect width="60" height="60" fill="white"/>
</clipPath>
</defs>
</svg>
