<svg xmlns="http://www.w3.org/2000/svg" viewBox="0 0 35.99 35.99"><defs><style>.cls-1{fill:#ffffff;}.cls-1,.cls-2{fill-rule:evenodd;}.cls-2{fill:#ffffff;}</style></defs><g id="圖層_2" data-name="圖層 2"><g id="圖層_1-2" data-name="圖層 1"><path class="cls-1" d="M23.12,16.61s-6.72,10.9-12.23,10.9c-9.62,0-.65-20.76,6.36-20.76,4.9,0,5.87,9.86,5.87,9.86Z"/><path class="cls-1" d="M31.11,30.32a18,18,0,0,1-28.63-3.2c1.59,2.16,4.29,3.61,8.14,3.61,9.46,0,14.85-7.36,14.85-7.36s.46,5.81,5.64,7Z"/><path class="cls-2" d="M33.94,9.65a18,18,0,0,1-.43,17.47A5.42,5.42,0,0,1,31,23.94c-1.71-5.13-2.06-6.16-2.06-6.16l5-8.13Z"/><path class="cls-2" d="M18,0A17.93,17.93,0,0,1,30.18,4.75l-3.41,5.5C25.53,7.05,23,3.83,18.15,3.83,8.16,3.83.76,14.74.76,21.57A10,10,0,0,0,1.1,24.2,18,18,0,0,1,18,0Z"/></g></g></svg>